<?xml version="1.0" encoding="UTF-8" standalone="no"?>
<svg
   xmlns:osb="http://www.openswatchbook.org/uri/2009/osb"
   xmlns:dc="http://purl.org/dc/elements/1.1/"
   xmlns:cc="http://creativecommons.org/ns#"
   xmlns:rdf="http://www.w3.org/1999/02/22-rdf-syntax-ns#"
   xmlns:svg="http://www.w3.org/2000/svg"
   xmlns="http://www.w3.org/2000/svg"
   xmlns:xlink="http://www.w3.org/1999/xlink"
   xmlns:sodipodi="http://sodipodi.sourceforge.net/DTD/sodipodi-0.dtd"
   xmlns:inkscape="http://www.inkscape.org/namespaces/inkscape"
   aria-hidden="true"
   focusable="false"
   data-prefix="fas"
   data-icon="beer"
   class="svg-inline--fa fa-beer fa-w-14"
   role="img"
   viewBox="0 0 540 540"
   version="1.1"
   id="svg4"
   sodipodi:docname="beerproto.svg"
   width="540"
   height="540"
   inkscape:version="0.92.5 (2060ec1f9f, 2020-04-08)"
   inkscape:export-filename="/home/rossmerr/Downloads/beerproto.png"
   inkscape:export-xdpi="96"
   inkscape:export-ydpi="96">
  <metadata
     id="metadata10">
    <rdf:RDF>
      <cc:Work
         rdf:about="">
        <dc:format>image/svg+xml</dc:format>
        <dc:type
           rdf:resource="http://purl.org/dc/dcmitype/StillImage" />
        <dc:title></dc:title>
      </cc:Work>
    </rdf:RDF>
  </metadata>
  <defs
     id="defs8">
    <linearGradient
       inkscape:collect="always"
       id="linearGradient15546">
      <stop
         style="stop-color:#00003f;stop-opacity:1;"
         offset="0"
         id="stop15542" />
      <stop
         style="stop-color:#00003f;stop-opacity:0;"
         offset="1"
         id="stop15544" />
    </linearGradient>
    <linearGradient
       inkscape:collect="always"
       id="linearGradient15538">
      <stop
         style="stop-color:#330d09;stop-opacity:1;"
         offset="0"
         id="stop15534" />
      <stop
         style="stop-color:#330d09;stop-opacity:0;"
         offset="1"
         id="stop15536" />
    </linearGradient>
    <linearGradient
       inkscape:collect="always"
       id="linearGradient15515">
      <stop
         style="stop-color:#0f9d58;stop-opacity:1;"
         offset="0"
         id="stop15511" />
      <stop
         style="stop-color:#000000;stop-opacity:0.336"
         offset="1"
         id="stop15513" />
    </linearGradient>
    <linearGradient
       inkscape:collect="always"
       id="linearGradient15482-0-6">
      <stop
         style="stop-color:#ffc107;stop-opacity:1;"
         offset="0"
         id="stop15478" />
      <stop
         style="stop-color:#b88a00;stop-opacity:0.333"
         offset="1"
         id="stop15480" />
    </linearGradient>
    <linearGradient
       inkscape:collect="always"
       id="linearGradient11243">
      <stop
         style="stop-color:#ffffff;stop-opacity:1;"
         offset="0"
         id="stop11239" />
      <stop
         style="stop-color:#ffffff;stop-opacity:0;"
         offset="1"
         id="stop11241" />
    </linearGradient>
    <linearGradient
       id="linearGradient10430"
       osb:paint="solid">
      <stop
         style="stop-color:#5f5c64;stop-opacity:1;"
         offset="0"
         id="stop10428" />
    </linearGradient>
    <radialGradient
       inkscape:collect="always"
       xlink:href="#linearGradient11243"
       id="radialGradient11245"
       cx="202.57927"
       cy="259.22073"
       fx="202.57927"
       fy="259.22073"
       r="22.11425"
       gradientTransform="matrix(1,0,0,7.4793721,-35.7266,-1670.652)"
       gradientUnits="userSpaceOnUse" />
    <radialGradient
       inkscape:collect="always"
       xlink:href="#linearGradient11243"
       id="radialGradient11245-9"
       cx="202.57927"
       cy="259.22073"
       fx="202.57927"
       fy="259.22073"
       r="22.11425"
       gradientTransform="matrix(1,0,0,7.4793721,40.2734,-1670.652)"
       gradientUnits="userSpaceOnUse" />
    <linearGradient
       inkscape:collect="always"
       xlink:href="#linearGradient15482-0-6"
       id="linearGradient15484"
       x1="355"
       y1="407"
       x2="275"
       y2="342"
       gradientUnits="userSpaceOnUse"
       gradientTransform="translate(-2,16)" />
    <linearGradient
       inkscape:collect="always"
       xlink:href="#linearGradient15515"
       id="linearGradient15517"
       x1="330"
       y1="102"
       x2="220"
       y2="192"
       gradientUnits="userSpaceOnUse"
       gradientTransform="translate(-2,16)" />
    <linearGradient
       inkscape:collect="always"
       xlink:href="#linearGradient15538"
       id="linearGradient15540"
       x1="140"
       y1="142"
       x2="90"
       y2="102"
       gradientUnits="userSpaceOnUse"
       gradientTransform="translate(-2,16)" />
    <linearGradient
       inkscape:collect="always"
       xlink:href="#linearGradient15546"
       id="linearGradient15548"
       x1="120"
       y1="402"
       x2="90"
       y2="422"
       gradientUnits="userSpaceOnUse"
       gradientTransform="translate(-2,16)" />
  </defs>
  <sodipodi:namedview
     pagecolor="#ffffff"
     bordercolor="#666666"
     borderopacity="1"
     objecttolerance="10"
     gridtolerance="10"
     guidetolerance="10"
     inkscape:pageopacity="0"
     inkscape:pageshadow="2"
     inkscape:window-width="1278"
     inkscape:window-height="1045"
     id="namedview6"
     showgrid="true"
     showguides="true"
     inkscape:zoom="0.32593203"
     inkscape:cx="174.34113"
     inkscape:cy="52.091966"
     inkscape:window-x="1997"
     inkscape:window-y="359"
     inkscape:window-maximized="0"
     inkscape:current-layer="svg4">
    <inkscape:grid
       type="xygrid"
       id="grid3868" />
  </sodipodi:namedview>
  <path
     inkscape:connector-curvature="0"
     style="fill:#db4437;fill-opacity:1"
     d="M 32.7929,33.57227 C 25.1297,35.36326 18.8825,40.82173 16,48 V 261.46094 L 190.4589,33.57227 Z"
     id="path2-6-7" />
  <path
     style="fill:#0f9d58;fill-opacity:1"
     d="m 404.2734,96.93555 v 64 h 48 c 8.822,0 16,7.178 16,16 v 107.80469 h 64 V 176.93555 c 0,-44.112 -35.888,-80 -80,-80 z"
     id="path2-6-6"
     inkscape:connector-curvature="0" />
  <path
     style="fill:#ffc107;fill-opacity:1"
     d="m 468.2734,280.93555 v 24.85938 a 16.018,16.018 0 0 1 -9.4785,14.61132 l -54.5215,24.33399 v 70.08593 l 80.6055,-35.97851 c 28.79,-12.85 47.3945,-41.52474 47.3945,-73.05273 v -24.85938 z"
     id="path2-6-6-9"
     inkscape:connector-curvature="0" />
  <path
     inkscape:connector-curvature="0"
     style="fill:#4285f4;fill-opacity:1"
     d="m 16,285.6836 v 210.1875 c 2.5627,6.382 7.7837,11.40601 14.2968,13.70117 h 152.9004 l 2.6621,-2.00781 z"
     id="path2-6-3" />
  <path
     style="opacity:1;fill:#5f5c64;fill-opacity:1;stroke:none;stroke-width:0.96692657;stroke-opacity:1"
     d="m 168.2734,100.93555 c -12.2123,0 -22.1153,9.25698 -22.1153,20.67474 v 289.45193 c 0,11.41785 9.903,20.67474 22.1153,20.67474 12.2122,0 22.1132,-9.25689 22.1132,-20.67474 V 121.61029 c 0,-11.41776 -9.901,-20.67474 -22.1132,-20.67474 z"
     id="rect5035"
     inkscape:connector-curvature="0" />
  <path
     inkscape:connector-curvature="0"
     style="fill:#ffc107;fill-opacity:1"
     d="m 407.0487,286.42578 v 210.1875 c -2.5627,6.382 -7.7837,11.40602 -14.2968,13.70117 H 239.8515 l -2.6621,-2.00781 z"
     id="path2-6-3-1" />
  <path
     inkscape:connector-curvature="0"
     style="fill:#0f9d58;fill-opacity:1"
     d="m 390.2558,34.31445 c 7.6632,1.79099 13.9104,7.24946 16.7929,14.42773 V 262.20312 L 232.5898,34.31445 Z"
     id="path2-6-7-2" />
  <path
     style="opacity:0.325;fill:url(#radialGradient11245);fill-opacity:1;stroke:none;stroke-width:0.96692657;stroke-opacity:1"
     d="m 166.85372,102.75557 c -12.2123,0 -22.1153,9.25698 -22.1153,20.67474 v 289.45193 c 0,11.41785 9.903,20.67474 22.1153,20.67474 12.2122,0 22.1132,-9.25689 22.1132,-20.67474 V 123.43031 c 0,-11.41776 -9.901,-20.67474 -22.1132,-20.67474 z"
     id="rect5035-1"
     inkscape:connector-curvature="0" />
  <path
     style="opacity:1;fill:#5f5c64;fill-opacity:1;stroke:none;stroke-width:0.96692657;stroke-opacity:1"
     d="m 244.2734,100.93555 c -12.2123,0 -22.1153,9.25698 -22.1153,20.67474 v 289.45193 c 0,11.41785 9.903,20.67474 22.1153,20.67474 12.2122,0 22.1132,-9.25689 22.1132,-20.67474 V 121.61029 c 0,-11.41776 -9.901,-20.67474 -22.1132,-20.67474 z"
     id="rect5035-8"
     inkscape:connector-curvature="0" />
  <path
     style="opacity:0.325;fill:url(#radialGradient11245-9);fill-opacity:1;stroke:none;stroke-width:0.96692657;stroke-opacity:1"
     d="m 242.85372,102.75557 c -12.2123,0 -22.1153,9.25698 -22.1153,20.67474 v 289.45193 c 0,11.41785 9.903,20.67474 22.1153,20.67474 12.2122,0 22.1132,-9.25689 22.1132,-20.67474 V 123.43031 c 0,-11.41776 -9.901,-20.67474 -22.1132,-20.67474 z"
     id="rect5035-1-4"
     inkscape:connector-curvature="0" />
  <path
     inkscape:connector-curvature="0"
     style="opacity:0.20100002;fill:url(#linearGradient15548);fill-opacity:1"
     d="m 16,285.6836 v 210.1875 c 2.5627,6.382 7.7837,11.40601 14.2968,13.70117 h 152.9004 l 2.6621,-2.00781 z"
     id="path2-6-3-3" />
  <path
     inkscape:connector-curvature="0"
     style="fill:url(#linearGradient15484);fill-opacity:1"
     d="m 407.0487,286.42578 v 210.1875 c -2.5627,6.382 -7.7837,11.40602 -14.2968,13.70117 H 239.8515 l -2.6621,-2.00781 z"
     id="path2-6-3-1-1" />
  <path
     inkscape:connector-curvature="0"
     style="fill:url(#linearGradient15517);fill-opacity:1"
     d="m 390.2558,34.31445 c 7.6632,1.79099 13.9104,7.24946 16.7929,14.42773 V 262.20312 L 232.5898,34.31445 Z"
     id="path2-6-7-2-3" />
  <path
     inkscape:connector-curvature="0"
     style="fill:url(#linearGradient15540);fill-opacity:1"
     d="M 32.7929,33.57227 C 25.1297,35.36326 18.8825,40.82173 16,48 V 261.46094 L 190.4589,33.57227 Z"
     id="path2-6-7-20" />
</svg>
